<?xml version="1.0" encoding="utf-8"?>
<!-- Generator: Adobe Illustrator 22.0.1, SVG Export Plug-In . SVG Version: 6.00 Build 0)  -->
<svg version="1.1" id="Layer_1" xmlns="http://www.w3.org/2000/svg" xmlns:xlink="http://www.w3.org/1999/xlink" x="0px" y="0px"
	 viewBox="0 0 50 50" style="enable-background:new 0 0 50 50;" xml:space="preserve">
<style type="text/css">
	.st0{fill:none;}
	.st1{fill:#FFFFFF;}
	.st2{fill:none;stroke:#FFFFFF;stroke-miterlimit:10;}
</style>
<g>
	<path id="XMLID_763_" class="st0" d="M49,25.3c-0.4,14.1-11.3,24.4-25.3,24.1C10.9,49.1,0.3,37.8,0.6,24.8
		C0.9,11.3,12,0.7,25.4,1.1C38.4,1.5,48.9,11.6,49,25.3z M25.9,21.3c-1.4,0-2.8,0-4.2,0c0,5.3,0,10.5,0,15.7c1.6,0,3,0,4.5,0
		c0-1.1,0-2.1,0-3c0-2-0.1-4,0.1-6c0.2-1.9,1.3-2.7,2.9-2.7c1.5,0,2.5,1,2.6,2.9c0.1,2.4,0.1,4.8,0.1,7.3c0,0.6,0,1.1,0,1.6
		c1.7,0,3.2,0,4.6,0c0-3.9,0.1-7.6,0-11.4c-0.1-2.4-1.7-3.9-4.1-4.2c-2.3-0.3-4.4,0-6.2,1.8C26,22.4,26,21.9,25.9,21.3z M13,21.3
		c0,5.3,0,10.5,0,15.7c1.9,0,3.6,0,5.4,0c0-5.3,0-10.5,0-15.7C16.5,21.3,14.8,21.3,13,21.3z M15.8,13.4c-1.6,0-2.9,1.2-2.9,2.8
		c0,1.5,1.2,2.8,2.7,2.8c1.5,0,2.8-1.2,2.8-2.8C18.5,14.7,17.3,13.4,15.8,13.4z"/>
	<path id="XMLID_721_" class="st1" d="M25.9,21.3c0,0.6,0.1,1.1,0.1,1.8c1.8-1.8,3.9-2.1,6.2-1.8c2.4,0.4,4,1.8,4.1,4.2
		c0.2,3.7,0,7.5,0,11.4c-1.4,0-2.9,0-4.6,0c0-0.5,0-1.1,0-1.6c0-2.4,0-4.8-0.1-7.3c-0.1-1.8-1.1-2.8-2.6-2.9
		c-1.6-0.1-2.7,0.8-2.9,2.7c-0.2,2-0.1,4-0.1,6c0,1,0,2,0,3c-1.5,0-3,0-4.5,0c0-5.2,0-10.4,0-15.7C23.1,21.3,24.5,21.3,25.9,21.3z"
		/>
	<path id="XMLID_720_" class="st1" d="M13,21.3c1.8,0,3.5,0,5.4,0c0,5.2,0,10.4,0,15.7c-1.8,0-3.5,0-5.4,0C13,31.8,13,26.6,13,21.3z
		"/>
	<path id="XMLID_719_" class="st1" d="M15.8,13.4c1.5,0,2.7,1.3,2.7,2.8c0,1.6-1.3,2.8-2.8,2.8c-1.5,0-2.7-1.3-2.7-2.8
		C12.9,14.6,14.2,13.4,15.8,13.4z"/>
	<rect x="3.3" y="5.5" class="st2" width="43.7" height="43.7"/>
</g>
</svg>
