<?xml version="1.0" encoding="utf-8"?>
<!-- Generator: Adobe Illustrator 22.0.1, SVG Export Plug-In . SVG Version: 6.00 Build 0)  -->
<svg version="1.1" id="Layer_1" xmlns="http://www.w3.org/2000/svg" xmlns:xlink="http://www.w3.org/1999/xlink" x="0px" y="0px"
	 viewBox="0 0 50 50" style="enable-background:new 0 0 50 50;" xml:space="preserve">
<style type="text/css">
	.st0{fill:#FFFFFF;}
	.st1{fill:none;stroke:#FFFFFF;stroke-miterlimit:10;}
</style>
<g>
	<path id="XMLID_718_" class="st0" d="M24.8,19.5c0.1-1.1,0-2,0.2-2.9c0.9-4.1,5.7-6.6,9.3-4.4c2.2,1.3,4,1.1,6.3,0.2
		c-0.7,1-1.3,1.9-2.1,3c0.9-0.2,1.8-0.4,3-0.7c-0.5,0.7-0.7,1.2-1.1,1.4c-2,1.2-2,3.1-2.3,5c-2,14.2-16.7,20-27.9,14
		c-0.2-0.1-0.3-0.3-0.6-0.4c1.6-0.2,3.2-0.3,4.6-0.7c1.5-0.4,2.8-1.2,4.2-2c-2.6-0.8-4.7-2-5.6-4.7c0.7-0.1,1.4-0.1,2.5-0.2
		c-3.1-1.4-4.8-3.3-5-6.5c0.9,0.2,1.6,0.4,2.7,0.7c-2.6-2.6-3.5-5.3-1.8-8.7C15,16.8,19.4,19.2,24.8,19.5z"/>
	<rect x="1" class="st1" width="49" height="49"/>
</g>
</svg>
